<?xml version="1.0" encoding="utf-8"?>
<!-- Generator: Adobe Illustrator 16.0.4, SVG Export Plug-In . SVG Version: 6.00 Build 0)  -->
<!DOCTYPE svg PUBLIC "-//W3C//DTD SVG 1.1//EN" "http://www.w3.org/Graphics/SVG/1.1/DTD/svg11.dtd">
<svg version="1.1" id="Layer_1" xmlns="http://www.w3.org/2000/svg" xmlns:xlink="http://www.w3.org/1999/xlink" x="0px" y="0px"
	 width="59.21px" height="19.355px" viewBox="0 0 59.21 19.355" enable-background="new 0 0 59.21 19.355" xml:space="preserve">
<g>
	<path fill="#2B71B9" d="M26.738,7.686c-0.184-0.276-0.424-0.496-0.72-0.66s-0.656-0.246-1.08-0.246
		c-0.424,0-0.784,0.082-1.08,0.246s-0.536,0.384-0.72,0.66c-0.184,0.276-0.318,0.59-0.402,0.942S22.61,9.344,22.61,9.72
		c0,0.36,0.042,0.71,0.126,1.049c0.084,0.341,0.218,0.646,0.402,0.919c0.184,0.272,0.424,0.489,0.72,0.653s0.656,0.246,1.08,0.246
		c0.424,0,0.784-0.082,1.08-0.246s0.536-0.381,0.72-0.653s0.318-0.578,0.402-0.919c0.084-0.339,0.126-0.689,0.126-1.049
		c0-0.376-0.042-0.74-0.126-1.092S26.922,7.962,26.738,7.686z"/>
	<path fill="#2B71B9" d="M13.826,7.752c-0.192-0.248-0.446-0.438-0.762-0.57c-0.316-0.132-0.706-0.198-1.17-0.198H10.55v5.4h1.68
		c0.272,0,0.536-0.045,0.792-0.133c0.256-0.088,0.484-0.234,0.684-0.438c0.2-0.204,0.36-0.471,0.48-0.799
		c0.12-0.327,0.18-0.727,0.18-1.199c0-0.432-0.042-0.822-0.126-1.17C14.156,8.298,14.018,8,13.826,7.752z"/>
	<path fill="#2B71B9" d="M48.21,0C46.194,0,3,0,3,0C1.343,0,0,1.343,0,3v13.355c0,1.656,1.343,3,3,3c0,0,43.181,0,45.21,0
		c2.027,0,11-9.678,11-9.678S50.226,0,48.21,0z M7.01,13.968H5.126V5.4H7.01V13.968z M16.01,11.364
		c-0.16,0.528-0.402,0.983-0.726,1.368c-0.324,0.384-0.728,0.686-1.212,0.906c-0.484,0.22-1.054,0.33-1.71,0.33H8.666V5.4h3.696
		c0.552,0,1.066,0.088,1.542,0.264c0.476,0.176,0.888,0.44,1.236,0.792c0.348,0.353,0.62,0.792,0.816,1.32
		c0.196,0.528,0.294,1.148,0.294,1.86C16.25,10.26,16.17,10.835,16.01,11.364z M19.442,13.968h-1.884V5.4h1.884V13.968z
		 M28.862,11.466c-0.192,0.539-0.468,1.01-0.828,1.41c-0.36,0.399-0.8,0.713-1.32,0.941s-1.112,0.342-1.776,0.342
		c-0.656,0-1.246-0.113-1.77-0.342s-0.966-0.542-1.326-0.941c-0.36-0.4-0.636-0.871-0.828-1.41
		c-0.192-0.541-0.288-1.123-0.288-1.747c0-0.64,0.096-1.234,0.288-1.782c0.192-0.548,0.468-1.026,0.828-1.434
		c0.36-0.408,0.802-0.728,1.326-0.96s1.114-0.348,1.77-0.348c0.664,0,1.256,0.116,1.776,0.348s0.96,0.552,1.32,0.96
		c0.36,0.408,0.636,0.886,0.828,1.434C29.054,8.486,29.15,9.08,29.15,9.72C29.15,10.344,29.054,10.925,28.862,11.466z
		 M39.662,13.968h-1.765V7.896h-0.023l-2.1,6.072h-1.453l-2.1-6.013h-0.023v6.013h-1.764V5.4h2.652l2.004,5.893h0.024L37.01,5.4
		h2.652V13.968z M47.762,12.515c-0.151,0.336-0.378,0.627-0.678,0.871s-0.673,0.434-1.116,0.569s-0.958,0.204-1.542,0.204
		c-0.472,0-0.931-0.059-1.374-0.174s-0.836-0.298-1.176-0.546s-0.61-0.563-0.811-0.948c-0.199-0.384-0.296-0.84-0.287-1.368h1.823
		c0,0.288,0.052,0.532,0.156,0.732s0.241,0.362,0.414,0.485c0.172,0.125,0.374,0.217,0.606,0.276
		c0.231,0.06,0.471,0.091,0.719,0.091c0.168,0,0.349-0.015,0.541-0.043c0.191-0.027,0.371-0.082,0.539-0.162s0.309-0.189,0.42-0.33
		c0.113-0.14,0.168-0.317,0.168-0.533c0-0.232-0.073-0.42-0.221-0.564c-0.148-0.145-0.343-0.264-0.582-0.359
		c-0.24-0.097-0.513-0.181-0.816-0.252c-0.305-0.072-0.612-0.152-0.924-0.24c-0.32-0.08-0.633-0.178-0.937-0.294
		c-0.304-0.116-0.575-0.266-0.815-0.45s-0.435-0.414-0.582-0.69c-0.148-0.276-0.223-0.61-0.223-1.002
		c0-0.44,0.094-0.822,0.282-1.146c0.188-0.324,0.435-0.594,0.738-0.81c0.304-0.216,0.647-0.375,1.032-0.48
		c0.384-0.104,0.768-0.156,1.151-0.156c0.448,0,0.878,0.05,1.29,0.15s0.778,0.262,1.098,0.486c0.32,0.224,0.574,0.51,0.763,0.858
		c0.188,0.348,0.282,0.77,0.282,1.266h-1.824c-0.016-0.256-0.07-0.468-0.162-0.636s-0.215-0.3-0.366-0.396
		c-0.151-0.096-0.325-0.164-0.522-0.204c-0.195-0.04-0.41-0.06-0.642-0.06c-0.151,0-0.304,0.016-0.456,0.048
		c-0.152,0.032-0.29,0.088-0.414,0.168s-0.226,0.18-0.306,0.3s-0.12,0.272-0.12,0.456c0,0.168,0.031,0.304,0.096,0.408
		c0.064,0.104,0.19,0.2,0.379,0.288c0.188,0.088,0.447,0.176,0.779,0.264s0.766,0.2,1.303,0.336c0.159,0.032,0.381,0.09,0.666,0.174
		c0.283,0.084,0.565,0.218,0.846,0.402c0.279,0.184,0.521,0.43,0.726,0.738c0.204,0.309,0.306,0.702,0.306,1.182
		C47.989,11.816,47.913,12.179,47.762,12.515z"/>
</g>
</svg>
