<?xml version="1.0" encoding="utf-8"?>
<!-- Generator: Adobe Illustrator 16.0.4, SVG Export Plug-In . SVG Version: 6.00 Build 0)  -->
<!DOCTYPE svg PUBLIC "-//W3C//DTD SVG 1.1//EN" "http://www.w3.org/Graphics/SVG/1.1/DTD/svg11.dtd">
<svg version="1.1" id="Layer_1" xmlns="http://www.w3.org/2000/svg" xmlns:xlink="http://www.w3.org/1999/xlink" x="0px" y="0px"
	 width="117.027px" height="19.355px" viewBox="0 0 117.027 19.355" enable-background="new 0 0 117.027 19.355"
	 xml:space="preserve">
<g>
	<path fill="#2B71B9" d="M84.63,6.88h-2.064v2.412h2.064c0.432,0,0.756-0.096,0.973-0.288c0.215-0.192,0.323-0.504,0.323-0.936
		c0-0.416-0.108-0.718-0.323-0.906C85.386,6.975,85.062,6.88,84.63,6.88z"/>
	<polygon fill="#2B71B9" points="49.951,7.528 48.834,10.672 51.055,10.672 49.975,7.528 	"/>
	<path fill="#2B71B9" d="M25.951,6.88h-2.064v2.412h2.064c0.432,0,0.756-0.096,0.972-0.288s0.324-0.504,0.324-0.936
		c0-0.416-0.108-0.718-0.324-0.906S26.383,6.88,25.951,6.88z"/>
	<path fill="#2B71B9" d="M93.966,8.645c0.216-0.16,0.324-0.42,0.324-0.78c0-0.2-0.037-0.364-0.108-0.492
		c-0.072-0.128-0.168-0.228-0.288-0.3C93.774,7,93.636,6.951,93.48,6.922c-0.156-0.028-0.318-0.042-0.486-0.042H91.23v2.004h1.908
		C93.474,8.884,93.75,8.805,93.966,8.645z"/>
	<polygon fill="#2B71B9" points="33.943,7.528 32.827,10.672 35.047,10.672 33.967,7.528 	"/>
	<path fill="#2B71B9" d="M93.283,10.168H91.23v2.353h2.016c0.185,0,0.36-0.019,0.528-0.054c0.168-0.037,0.315-0.096,0.444-0.181
		c0.127-0.084,0.229-0.198,0.306-0.342s0.114-0.328,0.114-0.552c0-0.439-0.124-0.754-0.372-0.942
		C94.018,10.263,93.69,10.168,93.283,10.168z"/>
	<path fill="#2B71B9" d="M9.607,7.114C9.455,7.022,9.279,6.96,9.079,6.928C8.879,6.896,8.671,6.88,8.455,6.88H6.991v2.568h1.464
		c0.216,0,0.424-0.016,0.624-0.048c0.2-0.032,0.376-0.094,0.528-0.186c0.152-0.092,0.274-0.222,0.366-0.39s0.138-0.388,0.138-0.66
		s-0.046-0.492-0.138-0.66S9.759,7.207,9.607,7.114z"/>
	<path fill="#2B71B9" d="M106.027,0C104.011,0,3,0,3,0C1.343,0,0,1.343,0,3v13.355c0,1.656,1.343,3,3,3c0,0,100.999,0,103.027,0
		s11-9.678,11-9.678S108.042,0,106.027,0z M11.773,9.178c-0.108,0.332-0.28,0.626-0.516,0.882c-0.236,0.256-0.542,0.462-0.918,0.617
		c-0.376,0.156-0.832,0.234-1.368,0.234h-1.98v3.072H5.107V5.417h3.864c0.536,0,0.992,0.078,1.368,0.234
		c0.376,0.156,0.682,0.362,0.918,0.618c0.236,0.256,0.408,0.548,0.516,0.876s0.162,0.668,0.162,1.02
		C11.935,8.508,11.881,8.847,11.773,9.178z M20.347,13.984h-1.884v-3.695h-3.468v3.695h-1.884V5.417h1.884v3.288h3.468V5.417h1.884
		V13.984z M27.5,13.984c-0.104-0.271-0.168-0.596-0.192-0.973c-0.024-0.375-0.06-0.735-0.108-1.079
		c-0.064-0.448-0.2-0.776-0.408-0.984c-0.208-0.208-0.548-0.312-1.02-0.312h-1.884v3.348h-1.884V5.417h4.62
		c0.384,0,0.729,0.062,1.038,0.186s0.572,0.294,0.792,0.51c0.22,0.216,0.388,0.466,0.504,0.75c0.116,0.284,0.174,0.59,0.174,0.918
		c0,0.504-0.106,0.94-0.318,1.308c-0.212,0.368-0.558,0.648-1.038,0.84v0.024c0.232,0.064,0.424,0.162,0.576,0.294
		c0.152,0.133,0.276,0.288,0.372,0.469c0.096,0.18,0.166,0.377,0.21,0.594c0.044,0.216,0.074,0.432,0.09,0.648
		c0.008,0.135,0.016,0.295,0.024,0.479c0.008,0.185,0.022,0.372,0.042,0.563c0.02,0.192,0.052,0.375,0.096,0.547
		s0.11,0.317,0.198,0.438H27.5z M36.187,13.984l-0.648-1.908h-3.204l-0.672,1.908h-1.896l3.24-8.568h1.932l3.204,8.568H36.187z
		 M45.331,12.532c-0.152,0.336-0.378,0.626-0.678,0.87c-0.3,0.244-0.672,0.434-1.116,0.57c-0.444,0.136-0.958,0.203-1.542,0.203
		c-0.472,0-0.93-0.058-1.374-0.174c-0.444-0.115-0.836-0.297-1.176-0.545c-0.34-0.248-0.61-0.564-0.81-0.949
		c-0.2-0.383-0.296-0.84-0.288-1.367h1.824c0,0.287,0.052,0.531,0.156,0.732c0.104,0.199,0.242,0.361,0.414,0.485
		c0.172,0.124,0.374,0.216,0.606,0.276c0.232,0.06,0.472,0.09,0.72,0.09c0.168,0,0.348-0.014,0.54-0.042
		c0.192-0.028,0.372-0.082,0.54-0.162s0.308-0.19,0.42-0.33c0.112-0.14,0.168-0.317,0.168-0.534c0-0.232-0.074-0.42-0.222-0.564
		c-0.148-0.144-0.342-0.264-0.582-0.359c-0.24-0.096-0.512-0.18-0.816-0.252c-0.304-0.072-0.612-0.152-0.924-0.24
		c-0.32-0.08-0.632-0.178-0.936-0.294c-0.304-0.116-0.576-0.266-0.816-0.45c-0.24-0.184-0.434-0.414-0.582-0.69
		c-0.148-0.276-0.222-0.61-0.222-1.002c0-0.44,0.094-0.822,0.282-1.146c0.188-0.324,0.434-0.594,0.738-0.81
		c0.304-0.216,0.648-0.375,1.032-0.48c0.384-0.104,0.768-0.156,1.152-0.156c0.448,0,0.878,0.05,1.29,0.15s0.778,0.262,1.098,0.486
		c0.32,0.224,0.574,0.51,0.762,0.858c0.188,0.348,0.282,0.77,0.282,1.266h-1.824c-0.016-0.256-0.07-0.468-0.162-0.636
		c-0.092-0.168-0.214-0.3-0.366-0.396c-0.152-0.096-0.326-0.164-0.522-0.204c-0.196-0.04-0.41-0.06-0.642-0.06
		c-0.152,0-0.304,0.016-0.456,0.048c-0.152,0.032-0.291,0.088-0.414,0.168c-0.125,0.08-0.226,0.18-0.306,0.3s-0.12,0.272-0.12,0.456
		c0,0.168,0.032,0.304,0.096,0.408c0.064,0.104,0.19,0.2,0.378,0.288c0.188,0.088,0.448,0.176,0.78,0.264s0.766,0.2,1.302,0.336
		c0.16,0.032,0.382,0.09,0.666,0.174c0.284,0.084,0.566,0.218,0.846,0.402c0.28,0.184,0.522,0.43,0.726,0.737
		c0.204,0.309,0.306,0.703,0.306,1.183C45.559,11.832,45.483,12.196,45.331,12.532z M52.195,13.984l-0.648-1.908h-3.204
		l-0.672,1.908h-1.896l3.24-8.568h1.932l3.204,8.568H52.195z M60.955,13.984h-6.06V5.417h1.884V12.4h4.176V13.984z M69.331,13.984
		h-2.124l-2.771-8.568h1.932l1.908,6.024h0.023l1.932-6.024h1.944L69.331,13.984z M79.411,13.984h-6.504V5.417h6.407V7h-4.523v1.836
		h4.152v1.464h-4.152v2.1h4.62V13.984z M86.179,13.984c-0.105-0.271-0.169-0.596-0.193-0.973c-0.023-0.375-0.06-0.735-0.107-1.079
		c-0.064-0.448-0.2-0.776-0.408-0.984s-0.548-0.312-1.02-0.312h-1.885v3.348h-1.883V5.417h4.619c0.385,0,0.73,0.062,1.038,0.186
		s0.572,0.294,0.792,0.51c0.221,0.216,0.389,0.466,0.504,0.75c0.116,0.284,0.174,0.59,0.174,0.918c0,0.504-0.105,0.94-0.317,1.308
		c-0.212,0.368-0.558,0.648-1.038,0.84v0.024c0.232,0.064,0.424,0.162,0.576,0.294c0.151,0.133,0.275,0.288,0.371,0.469
		c0.097,0.18,0.166,0.377,0.211,0.594c0.043,0.216,0.074,0.432,0.09,0.648c0.008,0.135,0.016,0.295,0.023,0.479
		s0.022,0.372,0.043,0.563c0.02,0.192,0.051,0.375,0.096,0.547c0.043,0.172,0.109,0.317,0.197,0.438H86.179z M96.27,12.623
		c-0.168,0.315-0.394,0.573-0.678,0.773s-0.608,0.348-0.972,0.443c-0.365,0.097-0.738,0.145-1.123,0.145h-4.151V5.417h4.032
		c0.408,0,0.779,0.036,1.115,0.108c0.336,0.072,0.625,0.19,0.864,0.354c0.24,0.164,0.427,0.382,0.558,0.654
		c0.133,0.272,0.199,0.608,0.199,1.008c0,0.432-0.099,0.792-0.295,1.08c-0.195,0.288-0.486,0.524-0.869,0.708
		c0.527,0.152,0.922,0.418,1.182,0.798c0.26,0.379,0.39,0.838,0.39,1.373C96.522,11.933,96.438,12.307,96.27,12.623z
		 M104.238,12.532c-0.151,0.336-0.377,0.626-0.678,0.87c-0.3,0.244-0.672,0.434-1.115,0.57c-0.444,0.136-0.959,0.203-1.543,0.203
		c-0.472,0-0.93-0.058-1.373-0.174c-0.444-0.115-0.836-0.297-1.176-0.545c-0.341-0.248-0.611-0.564-0.811-0.949
		c-0.2-0.383-0.297-0.84-0.288-1.367h1.823c0,0.287,0.053,0.531,0.156,0.732c0.104,0.199,0.242,0.361,0.414,0.485
		s0.374,0.216,0.606,0.276c0.231,0.06,0.472,0.09,0.72,0.09c0.168,0,0.348-0.014,0.54-0.042s0.372-0.082,0.54-0.162
		s0.309-0.19,0.42-0.33c0.112-0.14,0.168-0.317,0.168-0.534c0-0.232-0.074-0.42-0.222-0.564c-0.148-0.144-0.343-0.264-0.582-0.359
		c-0.24-0.096-0.513-0.18-0.815-0.252c-0.305-0.072-0.613-0.152-0.925-0.24c-0.319-0.08-0.632-0.178-0.937-0.294
		c-0.303-0.116-0.575-0.266-0.815-0.45c-0.239-0.184-0.435-0.414-0.582-0.69c-0.147-0.276-0.222-0.61-0.222-1.002
		c0-0.44,0.094-0.822,0.281-1.146c0.188-0.324,0.435-0.594,0.738-0.81c0.305-0.216,0.648-0.375,1.032-0.48
		c0.384-0.104,0.769-0.156,1.151-0.156c0.449,0,0.879,0.05,1.291,0.15s0.777,0.262,1.098,0.486c0.32,0.224,0.574,0.51,0.762,0.858
		c0.188,0.348,0.282,0.77,0.282,1.266h-1.823c-0.017-0.256-0.07-0.468-0.162-0.636c-0.093-0.168-0.215-0.3-0.367-0.396
		c-0.151-0.096-0.325-0.164-0.521-0.204c-0.195-0.04-0.41-0.06-0.643-0.06c-0.151,0-0.303,0.016-0.455,0.048
		c-0.152,0.032-0.291,0.088-0.414,0.168c-0.125,0.08-0.227,0.18-0.307,0.3s-0.119,0.272-0.119,0.456
		c0,0.168,0.031,0.304,0.096,0.408c0.064,0.104,0.189,0.2,0.378,0.288c0.188,0.088,0.448,0.176,0.78,0.264s0.766,0.2,1.302,0.336
		c0.159,0.032,0.382,0.09,0.666,0.174s0.565,0.218,0.846,0.402s0.522,0.43,0.726,0.737c0.205,0.309,0.307,0.703,0.307,1.183
		C104.466,11.832,104.39,12.196,104.238,12.532z"/>
</g>
</svg>
